<svg xmlns="http://www.w3.org/2000/svg" width="3.6in" height="3.6in" viewBox="0 0 1080 1080">
  <path id="Selection #1" fill="white" stroke="black" stroke-width="1" d="M 686.18,166.92
           C 680.67,170.03 679.02,177.54 676.52,183.00
             676.52,183.00 670.72,194.00 670.72,194.00
             669.56,196.83 669.15,202.43 674.00,201.26
             676.93,200.54 678.89,196.65 680.39,194.28
             682.83,190.44 690.65,178.44 691.82,175.04
             693.55,169.97 691.71,166.71 686.18,166.92 Z
           M 668.03,169.53
           C 665.66,170.20 664.71,170.32 662.94,172.28
             660.54,174.93 660.10,177.86 658.81,181.00
             658.81,181.00 653.26,193.00 653.26,193.00
             652.19,196.51 652.53,203.08 657.83,202.08
             660.75,201.52 662.37,197.66 663.87,195.41
             665.93,192.31 673.95,180.65 674.53,178.00
             675.63,172.93 673.12,169.55 668.03,169.53 Z
           M 725.00,192.00
           C 725.00,192.00 713.23,240.00 713.23,240.00
             712.27,243.96 710.02,253.78 706.61,255.98
             704.68,257.22 701.25,257.00 699.00,257.00
             699.00,257.00 651.00,257.00 651.00,257.00
             651.00,252.57 651.35,246.29 650.05,242.17
             650.05,242.17 647.54,235.96 647.54,235.96
             647.54,235.96 646.44,231.00 646.44,231.00
             645.04,226.60 641.52,223.71 637.13,226.74
             630.53,231.30 635.03,238.07 634.35,241.00
             632.90,247.25 625.22,248.99 620.00,247.01
             614.62,244.96 611.25,240.82 607.00,237.33
             607.00,237.33 591.00,226.11 591.00,226.11
             587.63,223.91 585.42,223.31 582.00,221.68
             582.00,221.68 571.00,216.11 571.00,216.11
             565.87,214.35 544.85,212.18 539.00,212.18
             515.71,212.18 488.55,226.91 468.00,237.19
             468.00,237.19 447.72,247.47 447.72,247.47
             447.72,247.47 438.00,252.82 438.00,252.82
             438.00,252.82 423.00,259.35 423.00,259.35
             423.00,259.35 416.00,261.90 416.00,261.90
             416.00,261.90 400.00,271.19 400.00,271.19
             400.00,271.19 372.00,284.26 372.00,284.26
             372.00,284.26 328.00,304.06 328.00,304.06
             328.00,304.06 313.28,310.46 313.28,310.46
             310.41,310.91 308.15,308.43 306.00,306.91
             306.00,306.91 291.00,297.92 291.00,297.92
             273.87,289.06 270.17,286.70 251.00,284.93
             251.00,284.93 241.00,284.00 241.00,284.00
             228.96,283.86 205.94,283.01 203.22,299.00
             202.02,306.10 206.80,317.40 204.16,322.00
             204.16,322.00 196.57,332.00 196.57,332.00
             196.57,332.00 189.26,343.00 189.26,343.00
             189.26,343.00 172.04,368.00 172.04,368.00
             168.88,373.58 163.75,383.71 164.41,390.17
             165.83,404.02 177.27,406.46 187.00,412.75
             189.82,414.58 191.85,416.23 195.00,417.65
             195.00,417.65 204.00,420.55 204.00,420.55
             204.00,420.55 220.00,427.69 220.00,427.69
             220.00,427.69 253.91,448.31 253.91,448.31
             257.93,450.64 260.10,453.78 265.00,454.73
             272.28,456.14 276.67,453.50 283.00,451.00
             283.00,451.00 282.00,448.00 282.00,448.00
             288.61,444.40 295.82,433.37 300.07,427.00
             300.07,427.00 308.19,416.68 308.19,416.68
             308.19,416.68 316.59,403.00 316.59,403.00
             318.64,399.66 324.13,389.42 326.47,387.60
             330.17,384.71 336.91,387.04 340.44,380.87
             344.45,373.89 342.94,366.28 341.23,359.00
             336.45,338.66 330.87,331.06 317.00,316.00
             325.28,314.70 324.59,312.86 331.00,310.40
             331.00,310.40 347.00,304.59 347.00,304.59
             347.00,304.59 357.00,299.00 357.00,299.00
             357.00,299.00 370.00,292.68 370.00,292.68
             370.00,292.68 379.00,287.44 379.00,287.44
             379.00,287.44 403.00,276.19 403.00,276.19
             403.00,276.19 419.00,267.51 419.00,267.51
             419.00,267.51 445.00,256.60 445.00,256.60
             445.00,256.60 466.00,244.63 466.00,244.63
             466.00,244.63 474.00,241.03 474.00,241.03
             474.00,241.03 489.00,233.46 489.00,233.46
             489.00,233.46 499.00,229.72 499.00,229.72
             499.00,229.72 521.00,220.53 521.00,220.53
             521.00,220.53 530.00,219.56 530.00,219.56
             530.00,219.56 538.00,218.18 538.00,218.18
             542.53,217.84 551.36,219.62 556.00,220.55
             572.92,223.96 591.88,234.75 605.74,244.90
             605.74,244.90 611.48,249.80 611.48,249.80
             616.08,253.29 617.24,253.64 622.00,258.00
             614.52,259.82 594.79,258.98 586.00,259.00
             584.06,259.00 580.14,258.77 578.61,260.02
             576.87,261.46 577.43,264.13 577.99,266.00
             579.13,269.73 584.11,277.26 587.09,279.69
             592.59,284.17 599.93,280.42 605.99,282.85
             610.57,284.69 620.33,295.13 629.00,296.67
             642.36,299.06 655.87,284.92 669.00,284.09
             683.43,283.19 693.72,296.55 704.00,297.87
             724.35,300.48 732.37,282.68 750.00,280.83
             754.89,280.32 761.69,281.59 766.00,283.96
             771.21,286.83 777.72,292.05 784.00,291.78
             791.18,291.46 797.91,283.57 804.00,280.76
             809.57,278.19 813.36,279.63 818.00,278.45
             822.48,277.30 828.47,273.52 832.00,270.56
             835.12,267.93 841.01,261.65 842.54,258.00
             843.52,256.18 844.19,253.51 842.54,252.02
             840.87,250.77 836.93,251.00 835.00,251.00
             835.00,251.00 792.00,251.00 792.00,251.00
             792.00,251.00 792.00,192.00 792.00,192.00
             792.00,192.00 725.00,192.00 725.00,192.00 Z
           M 772.00,208.00
           C 772.00,208.00 772.00,235.00 772.00,235.00
             772.00,235.00 741.00,235.00 741.00,235.00
             741.00,235.00 741.00,208.00 741.00,208.00
             741.00,208.00 772.00,208.00 772.00,208.00 Z
           M 647.23,209.04
           C 641.14,214.61 646.17,220.77 651.67,217.91
             656.86,215.21 655.61,206.46 647.23,209.04 Z
           M 662.42,210.03
           C 656.14,216.54 663.40,221.83 667.94,218.34
             672.76,214.62 669.59,207.49 662.42,210.03 Z
           M 637.00,251.00
           C 637.00,251.00 638.00,258.00 638.00,258.00
             638.00,258.00 632.00,259.00 632.00,259.00
             632.00,259.00 628.00,253.00 628.00,253.00
             628.00,253.00 637.00,251.00 637.00,251.00 Z
           M 868.00,281.00
           C 860.30,290.25 847.37,299.05 835.04,294.50
             825.96,291.16 822.77,283.40 811.00,285.21
             806.21,285.95 794.80,293.26 790.00,296.00
             787.07,297.67 783.51,299.97 780.00,299.51
             775.81,298.95 772.23,294.98 769.00,292.52
             764.37,289.00 758.96,286.16 753.00,286.18
             739.17,286.22 722.21,304.03 711.00,305.19
             697.18,306.62 685.20,290.03 671.00,290.03
             664.65,290.03 651.50,295.71 646.00,298.98
             642.64,300.97 638.65,304.68 634.58,304.97
             628.06,305.43 616.96,297.45 612.00,293.55
             608.56,290.84 605.60,287.57 601.00,287.17
             598.97,286.99 596.10,287.59 594.00,287.85
             579.10,289.65 579.41,294.74 568.00,299.24
             562.53,301.40 558.69,301.00 553.00,301.00
             553.00,301.00 553.00,320.00 553.00,320.00
             563.08,320.00 566.66,320.67 576.00,315.69
             580.54,313.27 592.81,305.11 597.00,305.32
             602.29,305.58 607.17,310.65 611.00,313.80
             616.03,317.95 622.42,321.29 629.00,321.90
             638.46,322.77 646.18,319.06 654.00,314.21
             658.18,311.61 661.74,307.73 666.96,307.44
             672.51,307.14 677.60,311.60 682.00,314.46
             688.66,318.79 694.88,322.15 703.00,322.90
             714.69,323.98 724.56,318.63 733.96,312.17
             737.92,309.45 744.36,303.88 749.00,303.28
             754.04,302.62 758.23,308.31 762.17,310.91
             769.42,315.68 773.65,316.11 782.00,316.00
             790.00,315.89 796.06,310.97 803.00,307.21
             805.54,305.83 809.07,303.25 811.96,303.29
             816.89,303.35 815.96,307.76 827.00,310.62
             849.00,316.32 863.40,310.10 878.00,293.00
             878.00,293.00 868.00,281.00 868.00,281.00 Z
           M 316.00,375.00
           C 314.52,381.20 311.07,385.73 307.69,391.00
             307.69,391.00 283.49,423.00 283.49,423.00
             279.43,428.52 275.27,438.29 267.00,437.44
             263.47,437.08 256.26,432.73 253.00,430.85
             253.00,430.85 238.00,421.12 238.00,421.12
             238.00,421.12 230.00,416.88 230.00,416.88
             226.82,414.95 225.69,413.71 222.00,412.10
             222.00,412.10 199.00,401.26 199.00,401.26
             199.00,401.26 185.00,394.46 185.00,394.46
             181.46,392.44 174.26,390.15 173.36,385.90
             172.37,381.27 180.20,367.96 183.00,364.00
             183.00,364.00 204.90,333.00 204.90,333.00
             204.90,333.00 210.59,326.00 210.59,326.00
             210.59,326.00 216.00,317.00 216.00,317.00
             213.04,315.10 212.27,313.36 211.22,310.00
             208.95,302.77 210.53,297.17 218.00,294.14
             226.86,290.55 231.16,291.31 240.00,291.91
             240.00,291.91 252.00,292.72 252.00,292.72
             257.38,293.35 259.54,292.36 265.00,294.24
             274.11,297.38 286.03,303.14 293.96,308.54
             293.96,308.54 301.05,314.01 301.05,314.01
             308.72,319.15 319.90,327.88 324.11,336.09
             329.38,346.37 343.38,372.90 323.00,375.79
             320.28,376.17 318.57,375.73 316.00,375.00 Z" />
</svg>
