<svg xmlns="http://www.w3.org/2000/svg" width="43.3494mm" height="24.5534mm" viewBox="0 0 512 290">
  <path id="Selection" fill="white" stroke="white" stroke-width="1" d="M 237.00,42.00
           C 237.00,42.00 236.00,28.00 236.00,28.00
             236.00,28.00 232.00,28.00 232.00,28.00
             231.74,31.20 230.76,36.06 226.42,35.76
             226.42,35.76 215.00,29.74 215.00,29.74
             203.17,23.66 199.75,21.57 186.08,21.26
             179.38,21.11 172.45,21.48 169.00,28.00
             175.23,26.24 177.02,24.18 184.00,24.01
             199.70,23.63 216.01,31.11 227.00,42.00
             227.00,42.00 197.00,42.00 197.00,42.00
             199.57,54.07 207.01,51.47 212.00,53.36
             216.16,54.95 219.27,57.61 224.00,57.86
             229.86,58.17 236.54,54.60 239.00,54.16
             244.39,53.20 247.98,58.34 256.00,58.90
             265.14,59.54 270.83,54.56 276.00,54.38
             282.95,54.13 289.02,60.35 297.00,60.90
             308.50,61.70 318.96,53.21 321.00,42.00
             316.68,42.00 302.49,43.06 299.70,40.40
             296.82,37.66 296.03,28.94 295.42,25.00
             295.13,23.14 294.98,20.26 293.40,19.02
             291.80,17.76 288.00,18.00 286.00,18.00
             286.00,18.00 269.00,18.00 269.00,18.00
             266.92,18.00 263.26,17.77 261.56,19.02
             258.23,21.48 257.47,36.63 253.35,40.40
             250.67,42.85 240.80,42.00 237.00,42.00 Z
           M 286.00,25.00
           C 286.00,25.00 286.00,35.00 286.00,35.00
             286.00,35.00 269.00,35.00 269.00,35.00
             269.00,35.00 269.00,25.00 269.00,25.00
             269.00,25.00 286.00,25.00 286.00,25.00 Z
           M 233.00,36.00
           C 233.00,36.00 232.00,42.00 232.00,42.00
             232.00,42.00 230.00,42.00 230.00,42.00
             230.00,42.00 227.00,37.00 227.00,37.00
             227.00,37.00 233.00,36.00 233.00,36.00 Z
           M 185.00,64.00
           C 185.00,64.00 185.00,70.00 185.00,70.00
             188.79,69.83 195.42,69.01 199.00,67.96
             201.72,67.16 206.65,64.75 209.00,64.78
             213.02,64.82 216.09,68.64 222.00,69.67
             230.00,71.06 237.74,66.27 240.58,66.14
             244.81,65.93 248.63,71.30 259.00,70.96
             267.74,70.67 272.76,66.47 277.00,66.53
             284.52,66.66 288.99,73.44 300.00,72.96
             309.73,72.54 312.45,66.94 318.00,66.52
             323.07,66.14 327.45,70.67 334.00,72.00
             334.00,72.00 334.00,71.00 334.00,71.00
             334.00,71.00 336.00,69.00 336.00,69.00
             331.01,62.68 320.97,58.23 313.00,61.13
             307.21,63.24 304.00,67.66 297.00,66.78
             291.51,66.08 285.10,60.62 277.00,60.21
             270.88,59.90 265.58,64.98 258.00,64.92
             251.39,64.86 247.19,60.32 242.00,59.63
             236.77,58.94 231.03,64.13 225.00,63.70
             220.09,63.35 214.60,58.44 209.00,58.29
             205.60,58.19 202.19,60.18 199.00,61.30
             194.58,62.85 189.66,63.62 185.00,64.00 Z
           M 180.00,84.00
           C 180.00,84.00 180.00,87.00 180.00,87.00
             180.00,87.00 172.60,88.60 172.60,88.60
             172.60,88.60 171.00,95.00 171.00,95.00
             171.00,95.00 171.00,112.00 171.00,112.00
             171.00,112.00 177.00,112.00 177.00,112.00
             177.00,112.00 177.00,117.00 177.00,117.00
             177.00,117.00 171.00,117.00 171.00,117.00
             171.00,117.00 171.00,113.00 171.00,113.00
             171.00,113.00 167.00,113.00 167.00,113.00
             167.00,113.00 168.60,120.85 168.60,120.85
             168.60,120.85 175.00,120.13 175.00,120.13
             175.00,120.13 190.00,120.13 190.00,120.13
             190.00,120.13 190.00,113.00 190.00,113.00
             190.00,113.00 186.00,113.00 186.00,113.00
             186.00,113.00 186.00,117.00 186.00,117.00
             186.00,117.00 181.00,117.00 181.00,117.00
             181.00,117.00 181.00,112.00 181.00,112.00
             181.00,112.00 197.00,112.00 197.00,112.00
             197.00,112.00 192.00,122.00 192.00,122.00
             193.95,121.97 196.84,122.15 198.49,120.98
             200.97,119.21 202.86,111.29 199.56,109.57
             198.19,108.86 194.62,109.00 193.00,109.00
             193.00,109.00 176.00,109.00 176.00,109.00
             176.00,109.00 176.00,106.00 176.00,106.00
             176.00,106.00 203.00,106.00 203.00,106.00
             203.00,106.00 203.00,103.00 203.00,103.00
             203.00,103.00 176.00,103.00 176.00,103.00
             176.00,103.00 176.00,100.00 176.00,100.00
             179.46,100.00 193.25,100.68 195.40,98.98
             198.02,96.91 197.39,89.82 194.69,88.02
             192.83,86.79 189.19,87.01 187.00,87.00
             187.00,87.00 187.00,84.00 187.00,84.00
             187.00,84.00 180.00,84.00 180.00,84.00 Z
           M 324.00,84.00
           C 324.00,84.00 324.00,87.00 324.00,87.00
             316.50,87.00 306.97,84.84 310.00,96.00
             310.00,96.00 312.00,96.00 312.00,96.00
             312.00,96.00 313.00,91.00 313.00,91.00
             313.00,91.00 339.00,91.00 339.00,91.00
             339.26,92.46 339.93,96.45 342.46,94.83
             344.79,93.34 343.62,89.31 341.69,88.02
             339.48,86.55 331.90,87.00 329.00,87.00
             329.00,87.00 329.00,84.00 329.00,84.00
             329.00,84.00 324.00,84.00 324.00,84.00 Z
           M 192.00,90.00
           C 192.00,90.00 192.00,92.00 192.00,92.00
             192.00,92.00 176.00,92.00 176.00,92.00
             176.00,92.00 176.00,90.00 176.00,90.00
             176.00,90.00 192.00,90.00 192.00,90.00 Z
           M 263.00,98.00
           C 264.74,97.85 266.78,97.95 267.97,96.40
             269.45,94.48 268.84,90.08 264.98,90.46
             255.76,91.34 256.53,110.62 260.70,115.77
             262.40,117.88 267.91,120.51 269.83,117.46
             271.43,114.93 266.76,113.71 264.74,110.86
             262.44,107.61 263.00,101.89 263.00,98.00 Z
           M 267.00,92.00
           C 267.00,92.00 267.00,96.00 267.00,96.00
             267.00,96.00 263.00,96.00 263.00,96.00
             263.00,96.00 263.00,92.00 263.00,92.00
             263.00,92.00 267.00,92.00 267.00,92.00 Z
           M 192.00,95.00
           C 192.00,95.00 192.00,98.00 192.00,98.00
             192.00,98.00 176.00,98.00 176.00,98.00
             176.00,98.00 176.00,95.00 176.00,95.00
             176.00,95.00 192.00,95.00 192.00,95.00 Z
           M 224.00,100.00
           C 230.15,101.96 229.27,106.39 228.84,112.00
             228.70,113.75 227.99,116.65 229.59,117.93
             234.05,121.47 234.93,108.94 234.92,107.00
             234.92,103.68 234.20,99.81 231.70,97.43
             226.78,92.73 213.82,92.89 210.17,99.19
             208.28,102.46 208.44,112.73 210.74,115.77
             213.96,120.04 220.38,119.70 222.98,114.94
             224.51,112.14 224.00,103.52 224.00,100.00 Z
           M 249.54,95.17
           C 247.03,98.53 248.34,102.01 247.89,106.00
             247.09,113.21 242.47,113.06 241.17,115.48
             239.57,118.45 244.83,120.16 248.79,117.26
             253.60,113.74 253.03,107.25 253.00,102.00
             252.98,98.99 253.62,94.62 249.54,95.17 Z
           M 302.00,94.00
           C 296.15,97.21 297.20,101.49 294.65,107.00
             293.16,110.20 291.52,112.55 287.98,113.57
             285.82,114.19 282.31,113.73 281.17,115.54
             278.54,119.69 289.31,119.31 291.99,118.26
             299.21,115.43 303.67,101.02 302.00,94.00 Z
           M 315.00,94.00
           C 315.00,94.00 315.00,98.00 315.00,98.00
             315.00,98.00 319.00,98.00 319.00,98.00
             315.78,101.06 314.31,101.32 310.00,102.00
             310.00,102.00 311.00,106.00 311.00,106.00
             311.00,106.00 321.00,103.00 321.00,103.00
             317.49,106.91 314.97,107.66 310.00,109.00
             313.64,114.37 319.63,109.31 324.00,107.00
             319.30,115.39 311.57,112.44 309.00,120.00
             316.87,119.28 319.30,116.59 326.00,113.00
             324.59,117.51 323.54,118.02 319.00,119.00
             322.78,125.67 329.59,121.69 330.72,115.99
             331.92,109.98 327.93,104.81 325.00,100.00
             325.00,100.00 329.00,99.00 329.00,99.00
             330.53,107.47 334.88,117.06 344.00,119.00
             344.00,119.00 338.62,108.09 338.62,108.09
             338.62,108.09 342.00,100.00 342.00,100.00
             342.00,100.00 334.00,103.00 334.00,103.00
             334.00,103.00 333.00,98.00 333.00,98.00
             333.00,98.00 337.00,98.00 337.00,98.00
             337.00,98.00 337.00,94.00 337.00,94.00
             337.00,94.00 315.00,94.00 315.00,94.00 Z
           M 292.00,95.00
           C 292.00,95.00 283.00,95.00 283.00,95.00
             281.48,95.03 275.12,95.22 277.17,98.46
             278.19,100.08 281.33,99.97 283.00,100.00
             288.22,100.08 290.98,100.78 292.00,95.00 Z
           M 218.98,100.00
           C 218.98,100.00 218.98,105.00 218.98,105.00
             218.98,105.00 218.98,108.98 218.98,108.98
             218.80,110.53 218.02,114.40 215.54,112.83
             214.27,112.03 211.06,102.54 218.98,100.00 Z
           M 127.00,198.00
           C 127.00,198.00 144.00,198.00 144.00,198.00
             144.00,198.00 144.00,224.00 144.00,224.00
             144.07,227.48 143.91,230.23 148.06,230.85
             155.29,231.94 154.99,227.41 155.00,222.00
             155.00,222.00 155.00,165.50 155.00,165.50
             154.84,156.73 151.44,158.01 144.00,158.00
             144.00,158.00 144.00,193.00 144.00,193.00
             144.00,193.00 127.00,193.00 127.00,193.00
             127.00,193.00 127.25,162.25 127.25,162.25
             127.09,152.81 118.66,156.09 116.75,158.00
             114.83,159.92 116.01,164.46 116.00,167.00
             116.00,167.00 116.00,222.00 116.00,222.00
             116.00,223.99 115.77,227.81 117.02,229.40
             117.88,230.49 126.80,234.51 127.00,223.75
             127.00,223.75 127.00,198.00 127.00,198.00 Z
           M 222.00,187.00
           C 226.30,193.82 230.80,208.85 233.14,217.00
             234.16,220.56 235.64,227.62 239.22,229.26
             243.30,231.13 248.09,229.77 248.85,224.98
             248.85,224.98 248.00,208.00 248.00,208.00
             248.00,208.00 248.00,177.00 248.00,177.00
             248.05,173.00 249.64,164.36 248.71,161.23
             247.59,157.49 241.20,157.08 238.74,159.60
             236.96,161.42 237.04,164.63 237.00,167.00
             237.00,167.00 237.00,192.00 237.00,192.00
             233.73,185.61 231.32,177.83 229.00,171.00
             227.92,167.83 225.97,161.72 223.59,159.51
             219.59,155.81 210.17,154.64 210.00,167.00
             210.00,167.00 210.00,221.00 210.00,221.00
             210.00,222.99 209.77,226.81 211.02,228.40
             212.91,230.79 219.01,230.52 220.40,227.69
             221.42,225.62 220.99,211.30 221.00,208.00
             221.00,208.00 222.00,187.00 222.00,187.00 Z
           M 307.00,158.00
           C 307.00,158.00 307.00,193.00 307.00,193.00
             307.00,193.00 307.81,208.00 307.81,208.00
             307.81,208.00 307.81,221.00 307.81,221.00
             307.63,223.13 306.72,226.74 307.81,228.69
             309.24,232.21 315.04,230.53 316.43,227.61
             317.20,225.98 316.95,221.97 317.09,220.00
             317.09,220.00 318.00,204.00 318.00,204.00
             318.00,204.00 329.05,222.00 329.05,222.00
             329.05,222.00 336.04,229.20 336.04,229.20
             336.04,229.20 344.00,229.20 344.00,229.20
             344.00,229.20 327.00,196.00 327.00,196.00
             331.34,195.89 335.11,195.51 338.54,192.36
             345.07,186.18 344.26,169.67 338.54,163.10
             331.51,154.85 316.67,156.72 307.00,158.00 Z
           M 319.31,161.77
           C 330.14,161.02 333.33,169.76 332.96,179.00
             332.78,183.54 331.73,189.53 326.96,191.40
             324.77,192.26 319.63,192.44 318.02,190.40
             316.96,189.06 317.03,186.62 317.00,185.00
             317.00,185.00 317.00,169.00 317.00,169.00
             317.02,165.56 316.45,163.90 319.31,161.77 Z
           M 190.00,224.00
           C 190.61,226.34 191.04,228.58 193.27,229.98
             195.58,231.42 201.31,232.16 201.50,227.25
             201.50,227.25 199.06,209.00 199.06,209.00
             198.75,202.89 201.19,198.17 199.06,192.00
             193.47,176.06 175.94,174.29 168.96,184.09
             162.88,192.64 162.88,203.01 163.00,213.00
             163.17,226.44 168.89,234.54 183.00,228.86
             186.09,227.61 187.57,226.15 190.00,224.00 Z
           M 284.00,224.00
           C 284.79,225.91 285.74,228.77 287.50,229.98
             289.95,231.66 295.26,231.23 296.08,227.85
             296.08,227.85 294.18,212.00 294.18,212.00
             294.18,212.00 294.18,194.00 294.18,194.00
             293.40,190.33 289.95,183.94 286.90,181.70
             281.23,177.54 268.54,177.58 263.96,183.33
             262.57,185.08 260.28,189.84 259.47,192.00
             257.87,196.21 258.01,198.63 258.00,203.00
             257.99,211.98 255.51,232.22 270.00,230.68
             271.77,230.50 275.36,229.55 277.00,228.87
             280.14,227.56 281.52,226.20 284.00,224.00 Z
           M 364.00,179.57
           C 350.11,184.74 349.49,199.44 350.84,212.00
             351.47,217.92 351.61,223.25 356.21,227.78
             359.95,231.46 364.04,231.94 369.00,232.00
             375.84,232.08 381.59,231.85 386.89,226.79
             393.88,220.11 388.18,216.11 383.05,217.45
             378.46,218.64 377.64,224.01 373.00,225.34
             365.13,227.60 359.76,211.10 362.06,207.31
             364.20,203.78 377.88,205.01 382.00,205.00
             383.96,205.00 387.84,205.23 389.40,203.98
             393.31,200.82 386.64,188.15 384.21,185.18
             379.47,179.39 370.97,178.32 364.00,179.57 Z
           M 179.00,184.00
           C 192.56,186.91 188.24,201.36 186.39,211.00
             185.69,214.61 184.23,221.07 180.69,222.92
             175.41,225.68 173.72,216.26 173.14,213.00
             173.14,213.00 173.14,205.00 173.14,205.00
             173.04,194.90 174.42,192.66 179.00,184.00 Z
           M 275.18,184.91
           C 287.14,187.11 282.00,205.12 280.21,213.00
             279.44,216.37 277.93,222.30 273.95,223.18
             267.98,224.50 268.01,212.45 268.00,209.00
             267.99,201.08 266.70,189.10 275.18,184.91 Z
           M 379.00,198.00
           C 376.05,198.84 365.02,200.38 363.13,197.40
             361.18,194.34 367.12,184.55 371.67,185.72
             375.10,186.60 377.92,194.90 379.00,198.00 Z
           M 26.00,205.00
           C 29.72,205.73 32.49,205.83 36.00,204.03
             39.70,202.13 42.73,198.08 48.00,198.31
             51.32,198.46 60.19,202.62 64.00,203.92
             71.59,206.52 82.47,208.21 90.00,204.70
             92.17,203.69 94.49,200.71 96.50,199.25
             87.41,191.97 84.67,203.13 76.00,203.05
             72.85,203.03 68.96,201.43 66.00,200.32
             61.73,198.71 57.47,196.47 53.00,195.52
             44.12,193.62 29.23,194.93 26.00,205.00 Z
           M 414.00,207.00
           C 426.46,209.46 427.05,199.91 436.00,200.31
             439.49,200.47 447.08,204.33 451.00,205.64
             458.34,208.11 470.77,210.04 478.00,206.70
             480.13,205.72 483.02,203.44 485.00,202.00
             475.95,194.75 472.76,204.80 464.00,204.92
             460.11,204.97 456.53,203.45 453.00,201.99
             453.00,201.99 444.00,198.30 444.00,198.30
             434.62,195.64 417.48,195.73 414.00,207.00 Z
           M 173.30,241.25
           C 170.05,244.33 171.01,248.76 171.00,253.00
             170.99,257.16 171.37,261.50 167.77,264.42
             165.57,266.21 162.22,266.30 161.17,268.41
             159.01,272.73 167.92,274.67 172.79,271.11
             178.94,266.61 178.01,256.71 178.00,250.00
             177.99,245.93 178.79,240.86 173.30,241.25 Z
           M 187.30,241.17
           C 186.53,241.92 186.40,241.34 185.60,243.15
             183.72,247.39 184.99,263.83 187.41,267.91
             189.83,271.97 196.55,274.87 200.64,271.98
             202.19,270.89 202.45,269.18 201.21,267.73
             199.43,265.67 195.53,266.25 193.17,261.94
             189.88,255.90 195.63,240.28 187.30,241.17 Z
           M 249.00,246.00
           C 246.21,246.00 237.23,245.69 235.15,246.60
             232.77,247.64 231.64,250.32 233.62,251.98
             236.61,254.49 245.84,250.82 246.93,256.15
             247.68,259.75 244.23,264.15 240.99,265.40
             240.99,265.40 237.02,266.13 237.02,266.13
             234.82,266.58 231.88,267.83 232.74,270.70
             233.81,274.25 243.49,273.10 245.99,271.83
             253.09,268.18 254.07,260.03 255.00,253.00
             257.33,253.00 263.69,253.39 265.38,251.98
             266.27,251.24 266.57,250.20 266.26,249.09
             265.19,245.31 259.01,246.00 256.00,246.00
             255.40,238.44 250.49,239.39 249.00,246.00 Z
           M 331.00,252.00
           C 328.79,252.08 327.06,251.99 325.00,253.02
             318.58,256.23 305.31,275.56 305.00,259.00
             305.00,259.00 305.00,249.00 305.00,249.00
             304.98,246.54 305.17,240.28 301.09,240.91
             299.83,241.11 299.08,242.05 298.60,243.15
             297.63,245.33 297.96,259.67 298.00,263.00
             298.12,271.81 303.23,276.54 312.00,272.99
             315.29,271.66 328.34,260.15 329.98,256.96
             330.89,255.18 330.85,253.89 331.00,252.00 Z" />
</svg>
