<svg xmlns="http://www.w3.org/2000/svg" width="54.6948mm" height="10.414mm" viewBox="0 0 646 123">
  <path id="logo-horizontal-1" fill="white" stroke="white" stroke-width="1" d="M 70.00,24.00
           C 70.00,24.00 69.00,10.00 69.00,10.00
             69.00,10.00 65.00,10.00 65.00,10.00
             64.74,13.20 63.76,18.06 59.42,17.76
             59.42,17.76 48.00,11.74 48.00,11.74
             36.04,5.59 32.92,3.59 19.08,3.26
             12.40,3.10 5.44,3.50 2.00,10.00
             8.23,8.24 10.02,6.18 17.00,6.01
             32.70,5.63 49.01,13.11 60.00,24.00
             60.00,24.00 30.00,24.00 30.00,24.00
             32.57,36.07 40.01,33.47 45.00,35.36
             49.16,36.95 52.27,39.61 57.00,39.86
             62.86,40.17 69.54,36.60 72.00,36.16
             77.39,35.20 80.98,40.34 89.00,40.90
             98.14,41.54 103.83,36.56 109.00,36.38
             115.95,36.13 122.02,42.35 130.00,42.90
             141.50,43.70 151.96,35.21 154.00,24.00
             149.68,24.00 135.49,25.06 132.70,22.40
             129.82,19.66 129.03,10.94 128.42,7.00
             128.13,5.14 127.98,2.26 126.40,1.02
             124.80,-0.24 121.00,0.00 119.00,0.00
             119.00,0.00 102.00,0.00 102.00,0.00
             99.92,0.00 96.26,-0.23 94.56,1.02
             91.23,3.48 90.47,18.63 86.35,22.40
             83.67,24.85 73.80,24.00 70.00,24.00 Z
           M 119.00,7.00
           C 119.00,7.00 119.00,17.00 119.00,17.00
             119.00,17.00 102.00,17.00 102.00,17.00
             102.00,17.00 102.00,7.00 102.00,7.00
             102.00,7.00 119.00,7.00 119.00,7.00 Z
           M 288.00,47.00
           C 288.00,47.00 305.00,47.00 305.00,47.00
             305.00,47.00 305.00,73.00 305.00,73.00
             305.07,76.48 304.91,79.23 309.06,79.85
             316.29,80.94 315.99,76.41 316.00,71.00
             316.00,71.00 316.00,15.00 316.00,15.00
             315.83,6.23 312.44,7.01 305.00,7.00
             305.00,7.00 305.00,42.00 305.00,42.00
             305.00,42.00 288.00,42.00 288.00,42.00
             288.00,42.00 288.00,13.00 288.00,13.00
             287.83,3.42 280.73,5.79 278.60,8.31
             276.71,10.55 277.01,14.24 277.00,17.00
             277.00,17.00 277.00,71.00 277.00,71.00
             277.00,72.99 276.77,76.81 278.02,78.40
             278.88,79.49 287.80,83.76 288.00,73.00
             288.00,73.00 288.00,47.00 288.00,47.00 Z
           M 383.00,36.00
           C 387.30,42.82 391.80,57.85 394.14,66.00
             395.16,69.56 396.64,76.62 400.22,78.26
             404.30,80.13 409.09,78.77 409.85,73.98
             409.85,73.98 409.00,57.00 409.00,57.00
             409.00,57.00 409.00,26.00 409.00,26.00
             409.05,22.00 410.64,13.36 409.71,10.23
             408.59,6.49 402.20,6.08 399.74,8.60
             397.96,10.42 398.04,13.63 398.00,16.00
             398.00,16.00 398.00,41.00 398.00,41.00
             394.73,34.61 392.32,26.83 390.00,20.00
             388.92,16.83 386.97,10.72 384.59,8.51
             380.59,4.81 371.17,3.64 371.00,16.00
             371.00,16.00 371.00,70.00 371.00,70.00
             371.00,71.99 370.77,75.81 372.02,77.40
             373.91,79.79 380.01,79.52 381.40,76.69
             382.42,74.62 381.99,60.30 382.00,57.00
             382.00,57.00 383.00,36.00 383.00,36.00 Z
           M 468.00,7.00
           C 468.00,7.00 468.00,42.00 468.00,42.00
             468.00,42.00 468.81,57.00 468.81,57.00
             468.81,57.00 468.81,70.00 468.81,70.00
             468.63,72.13 467.72,75.74 468.81,77.69
             470.24,81.21 476.04,79.53 477.43,76.61
             478.20,74.98 477.95,70.97 478.09,69.00
             478.09,69.00 479.00,53.00 479.00,53.00
             479.00,53.00 490.05,71.00 490.05,71.00
             490.05,71.00 497.04,78.20 497.04,78.20
             497.04,78.20 505.00,78.20 505.00,78.20
             505.00,78.20 488.00,45.00 488.00,45.00
             492.34,44.89 496.11,44.51 499.54,41.36
             506.07,35.18 505.26,18.67 499.54,12.10
             492.51,3.85 477.67,5.72 468.00,7.00 Z
           M 480.31,10.77
           C 491.14,10.02 494.33,18.76 493.96,28.00
             493.78,32.54 492.73,38.53 487.96,40.40
             485.77,41.26 480.63,41.44 479.02,39.40
             477.96,38.06 478.03,35.62 478.00,34.00
             478.00,34.00 478.00,18.00 478.00,18.00
             478.02,14.56 477.45,12.90 480.31,10.77 Z
           M 66.00,18.00
           C 66.00,18.00 65.00,24.00 65.00,24.00
             65.00,24.00 63.00,24.00 63.00,24.00
             63.00,24.00 60.00,19.00 60.00,19.00
             60.00,19.00 66.00,18.00 66.00,18.00 Z
           M 351.00,73.00
           C 351.61,75.34 352.04,77.58 354.27,78.98
             356.58,80.42 362.48,80.85 362.67,75.94
             362.67,75.94 360.06,58.00 360.06,58.00
             359.75,51.89 362.19,47.17 360.06,41.00
             354.47,25.06 336.94,23.29 329.96,33.09
             323.88,41.64 323.88,52.01 324.00,62.00
             324.17,75.44 329.89,83.54 344.00,77.86
             347.09,76.61 348.57,75.15 351.00,73.00 Z
           M 445.00,73.00
           C 445.79,74.91 446.74,77.77 448.50,78.98
             450.95,80.66 456.26,80.23 457.08,76.85
             457.08,76.85 455.18,61.00 455.18,61.00
             455.18,61.00 455.18,43.00 455.18,43.00
             454.40,39.33 450.95,32.94 447.90,30.70
             442.23,26.54 429.54,26.58 424.96,32.33
             423.57,34.08 421.28,38.84 420.47,41.00
             418.87,45.21 419.01,47.63 419.00,52.00
             418.99,60.98 416.51,81.22 431.00,79.68
             432.77,79.50 436.36,78.55 438.00,77.87
             441.14,76.56 442.52,75.20 445.00,73.00 Z
           M 525.00,28.57
           C 511.11,33.74 510.49,48.44 511.84,61.00
             512.47,66.92 512.61,72.25 517.21,76.78
             520.95,80.46 525.04,80.94 530.00,81.00
             536.84,81.08 542.59,80.85 547.89,75.79
             554.88,69.11 549.18,65.11 544.05,66.45
             539.46,67.64 538.64,73.01 534.00,74.34
             526.13,76.60 520.76,60.10 523.06,56.31
             525.20,52.78 538.88,54.01 543.00,54.00
             544.96,54.00 548.84,54.23 550.40,52.98
             554.31,49.82 547.64,37.15 545.21,34.18
             540.47,28.39 531.97,27.32 525.00,28.57 Z
           M 340.00,33.00
           C 353.56,35.91 349.24,50.36 347.39,60.00
             346.69,63.61 345.23,70.07 341.69,71.92
             336.41,74.68 334.72,65.26 334.14,62.00
             334.14,62.00 334.14,54.00 334.14,54.00
             334.04,43.90 335.42,41.66 340.00,33.00 Z
           M 436.18,33.91
           C 448.14,36.11 443.00,54.12 441.21,62.00
             440.44,65.37 438.93,71.30 434.95,72.18
             428.98,73.50 429.01,61.45 429.00,58.00
             428.99,50.08 427.70,38.10 436.18,33.91 Z
           M 540.00,47.00
           C 537.05,47.84 526.02,49.38 524.13,46.40
             522.18,43.34 528.12,33.55 532.67,34.72
             536.10,35.60 538.92,43.90 540.00,47.00 Z
           M 18.00,46.00
           C 18.00,46.00 18.00,52.00 18.00,52.00
             21.79,51.83 28.42,51.01 32.00,49.96
             34.72,49.16 39.65,46.75 42.00,46.78
             46.02,46.82 49.09,50.64 55.00,51.67
             63.00,53.06 70.74,48.27 73.58,48.14
             77.81,47.93 81.63,53.30 92.00,52.96
             100.74,52.67 105.76,48.47 110.00,48.53
             117.52,48.66 121.99,55.44 133.00,54.96
             142.73,54.54 145.45,48.94 151.00,48.52
             156.07,48.14 160.45,52.67 167.00,54.00
             167.00,54.00 167.00,53.00 167.00,53.00
             167.00,53.00 169.00,51.00 169.00,51.00
             164.01,44.68 153.97,40.23 146.00,43.13
             140.21,45.24 137.00,49.66 130.00,48.78
             124.51,48.08 118.10,42.62 110.00,42.21
             103.88,41.90 98.58,46.98 91.00,46.92
             84.39,46.86 80.19,42.32 75.00,41.63
             69.77,40.94 64.03,46.13 58.00,45.70
             53.09,45.35 47.60,40.44 42.00,40.29
             38.60,40.19 35.19,42.18 32.00,43.30
             27.58,44.85 22.66,45.62 18.00,46.00 Z
           M 187.00,54.00
           C 190.72,54.73 193.49,54.83 197.00,53.03
             200.70,51.13 203.73,47.08 209.00,47.31
             212.32,47.46 221.19,51.62 225.00,52.92
             232.59,55.52 243.47,57.21 251.00,53.70
             253.17,52.69 255.99,50.46 258.00,49.00
             248.91,41.72 245.67,52.13 237.00,52.05
             233.85,52.03 229.96,50.43 227.00,49.32
             222.73,47.71 218.47,45.47 214.00,44.52
             205.12,42.62 190.23,43.93 187.00,54.00 Z
           M 575.00,56.00
           C 587.46,58.46 588.05,48.91 597.00,49.31
             600.49,49.47 608.08,53.33 612.00,54.64
             619.34,57.11 631.77,59.04 639.00,55.70
             641.13,54.72 644.02,52.44 646.00,51.00
             636.95,43.75 633.76,53.80 625.00,53.92
             621.11,53.97 617.53,52.45 614.00,50.99
             614.00,50.99 605.00,47.30 605.00,47.30
             595.62,44.64 578.48,44.73 575.00,56.00 Z
           M 13.00,66.00
           C 13.00,66.00 13.00,69.00 13.00,69.00
             13.00,69.00 5.60,70.60 5.60,70.60
             5.60,70.60 4.00,77.00 4.00,77.00
             4.00,77.00 4.00,94.00 4.00,94.00
             4.00,94.00 10.00,94.00 10.00,94.00
             10.00,94.00 10.00,99.00 10.00,99.00
             10.00,99.00 4.00,99.00 4.00,99.00
             4.00,99.00 4.00,95.00 4.00,95.00
             4.00,95.00 0.00,95.00 0.00,95.00
             0.00,95.00 1.60,102.85 1.60,102.85
             1.60,102.85 8.00,102.13 8.00,102.13
             8.00,102.13 23.00,102.13 23.00,102.13
             23.00,102.13 23.00,95.00 23.00,95.00
             23.00,95.00 19.00,95.00 19.00,95.00
             19.00,95.00 19.00,99.00 19.00,99.00
             19.00,99.00 14.00,99.00 14.00,99.00
             14.00,99.00 14.00,94.00 14.00,94.00
             14.00,94.00 30.00,94.00 30.00,94.00
             30.00,94.00 25.00,104.00 25.00,104.00
             26.95,103.97 29.84,104.15 31.49,102.98
             33.97,101.21 35.86,93.29 32.56,91.57
             31.19,90.86 27.62,91.00 26.00,91.00
             26.00,91.00 9.00,91.00 9.00,91.00
             9.00,91.00 9.00,88.00 9.00,88.00
             9.00,88.00 36.00,88.00 36.00,88.00
             36.00,88.00 36.00,85.00 36.00,85.00
             36.00,85.00 9.00,85.00 9.00,85.00
             9.00,85.00 9.00,82.00 9.00,82.00
             12.46,82.00 26.25,82.68 28.40,80.98
             31.02,78.91 30.39,71.82 27.69,70.02
             25.83,68.79 22.19,69.01 20.00,69.00
             20.00,69.00 20.00,66.00 20.00,66.00
             20.00,66.00 13.00,66.00 13.00,66.00 Z
           M 157.00,66.00
           C 157.00,66.00 157.00,69.00 157.00,69.00
             149.50,69.00 139.97,66.84 143.00,78.00
             143.00,78.00 145.00,78.00 145.00,78.00
             145.00,78.00 146.00,73.00 146.00,73.00
             146.00,73.00 172.00,73.00 172.00,73.00
             172.26,74.46 172.93,78.45 175.46,76.83
             177.79,75.34 176.62,71.31 174.69,70.02
             172.48,68.55 164.90,69.00 162.00,69.00
             162.00,69.00 162.00,66.00 162.00,66.00
             162.00,66.00 157.00,66.00 157.00,66.00 Z
           M 25.00,72.00
           C 25.00,72.00 25.00,74.00 25.00,74.00
             25.00,74.00 9.00,74.00 9.00,74.00
             9.00,74.00 9.00,72.00 9.00,72.00
             9.00,72.00 25.00,72.00 25.00,72.00 Z
           M 96.00,80.00
           C 97.74,79.85 99.78,79.95 100.97,78.40
             102.45,76.48 101.84,72.08 97.98,72.46
             88.76,73.34 89.53,92.62 93.70,97.77
             95.40,99.88 100.91,102.51 102.83,99.46
             104.43,96.93 99.76,95.71 97.74,92.86
             95.44,89.61 96.00,83.89 96.00,80.00 Z
           M 100.00,74.00
           C 100.00,74.00 100.00,78.00 100.00,78.00
             100.00,78.00 96.00,78.00 96.00,78.00
             96.00,78.00 96.00,74.00 96.00,74.00
             96.00,74.00 100.00,74.00 100.00,74.00 Z
           M 25.00,77.00
           C 25.00,77.00 25.00,80.00 25.00,80.00
             25.00,80.00 9.00,80.00 9.00,80.00
             9.00,80.00 9.00,77.00 9.00,77.00
             9.00,77.00 25.00,77.00 25.00,77.00 Z
           M 57.00,82.00
           C 63.15,83.96 62.27,88.39 61.84,94.00
             61.70,95.75 60.99,98.65 62.59,99.93
             67.05,103.47 67.93,90.94 67.92,89.00
             67.92,85.68 67.20,81.81 64.70,79.43
             59.78,74.73 46.82,74.89 43.17,81.19
             41.28,84.46 41.44,94.73 43.74,97.77
             46.96,102.04 53.38,101.70 55.98,96.94
             57.51,94.14 57.00,85.52 57.00,82.00 Z
           M 82.54,77.17
           C 80.03,80.53 81.34,84.01 80.89,88.00
             80.09,95.21 75.47,95.06 74.17,97.48
             72.57,100.45 77.83,102.16 81.79,99.26
             86.60,95.74 86.03,89.25 86.00,84.00
             85.98,80.99 86.62,76.62 82.54,77.17 Z
           M 135.00,76.00
           C 129.15,79.21 130.20,83.49 127.65,89.00
             126.16,92.20 124.52,94.55 120.98,95.57
             118.82,96.19 115.31,95.73 114.17,97.54
             111.54,101.69 122.31,101.31 124.99,100.26
             132.21,97.43 136.67,83.02 135.00,76.00 Z
           M 148.00,76.00
           C 148.00,76.00 148.00,80.00 148.00,80.00
             148.00,80.00 152.00,80.00 152.00,80.00
             148.78,83.06 147.31,83.32 143.00,84.00
             143.00,84.00 144.00,88.00 144.00,88.00
             144.00,88.00 154.00,85.00 154.00,85.00
             150.49,88.91 147.97,89.66 143.00,91.00
             146.64,96.37 152.63,91.31 157.00,89.00
             152.30,97.39 144.57,94.44 142.00,102.00
             149.87,101.28 152.30,98.59 159.00,95.00
             157.59,99.51 156.54,100.02 152.00,101.00
             155.78,107.67 162.59,103.69 163.72,97.98
             164.92,91.98 160.93,86.81 158.00,82.00
             158.00,82.00 162.00,81.00 162.00,81.00
             163.53,89.47 167.88,99.06 177.00,101.00
             177.00,101.00 171.62,90.09 171.62,90.09
             171.62,90.09 175.00,82.00 175.00,82.00
             175.00,82.00 167.00,85.00 167.00,85.00
             167.00,85.00 166.00,80.00 166.00,80.00
             166.00,80.00 170.00,80.00 170.00,80.00
             170.00,80.00 170.00,76.00 170.00,76.00
             170.00,76.00 148.00,76.00 148.00,76.00 Z
           M 125.00,77.00
           C 125.00,77.00 116.00,77.00 116.00,77.00
             114.48,77.03 108.12,77.22 110.17,80.46
             111.19,82.08 114.33,81.97 116.00,82.00
             121.22,82.08 123.98,82.78 125.00,77.00 Z
           M 51.98,82.00
           C 51.98,82.00 51.98,87.00 51.98,87.00
             51.98,87.00 51.98,90.98 51.98,90.98
             51.80,92.53 51.02,96.40 48.54,94.83
             47.27,94.03 44.06,84.54 51.98,82.00 Z
           M 334.30,90.25
           C 331.05,93.33 332.01,97.76 332.00,102.00
             331.99,106.16 332.37,110.50 328.77,113.42
             326.57,115.21 323.22,115.30 322.17,117.41
             320.01,121.73 328.92,123.67 333.79,120.11
             339.94,115.61 339.01,105.71 339.00,99.00
             338.99,94.93 339.79,89.86 334.30,90.25 Z
           M 348.30,90.17
           C 347.53,90.92 347.40,90.34 346.60,92.15
             344.72,96.39 345.99,112.83 348.41,116.91
             350.83,120.97 357.55,123.87 361.64,120.98
             363.19,119.89 363.45,118.18 362.21,116.73
             360.43,114.67 356.53,115.25 354.17,110.94
             350.88,104.90 356.63,89.28 348.30,90.17 Z
           M 410.00,95.00
           C 407.21,95.00 398.23,94.69 396.15,95.60
             393.77,96.64 392.64,99.32 394.62,100.98
             397.61,103.49 406.84,99.82 407.93,105.15
             408.68,108.75 405.23,113.15 401.98,114.40
             401.98,114.40 398.02,115.13 398.02,115.13
             395.82,115.58 392.88,116.83 393.74,119.70
             394.81,123.25 404.49,122.10 406.99,120.83
             414.09,117.18 415.07,109.03 416.00,102.00
             418.33,102.00 424.69,102.39 426.38,100.98
             427.27,100.24 427.57,99.20 427.26,98.09
             426.19,94.31 420.01,95.00 417.00,95.00
             416.40,87.44 411.49,88.39 410.00,95.00 Z
           M 492.00,101.00
           C 489.79,101.08 488.06,100.99 486.00,102.02
             479.58,105.23 466.31,124.56 466.00,108.00
             466.00,108.00 466.00,98.00 466.00,98.00
             465.98,95.54 466.17,89.28 462.09,89.91
             460.83,90.11 460.08,91.05 459.60,92.15
             458.63,94.33 458.96,108.67 459.00,112.00
             459.12,120.81 464.23,125.54 473.00,121.99
             476.29,120.66 489.34,109.15 490.98,105.96
             491.89,104.18 491.85,102.89 492.00,101.00 Z" />
</svg>
