<svg xmlns="http://www.w3.org/2000/svg" width="43.3494mm" height="43.3494mm" viewBox="0 0 512 512">
  <path id="Selection" fill="white" stroke="white" stroke-width="1" d="M 237.00,112.00
           C 237.00,112.00 236.00,98.00 236.00,98.00
             236.00,98.00 232.00,98.00 232.00,98.00
             231.74,101.20 230.76,106.06 226.42,105.76
             226.42,105.76 215.00,99.74 215.00,99.74
             203.17,93.66 199.75,91.57 186.08,91.26
             179.38,91.11 172.45,91.48 169.00,98.00
             175.23,96.24 177.02,94.18 184.00,94.01
             199.70,93.63 216.01,101.11 227.00,112.00
             227.00,112.00 197.00,112.00 197.00,112.00
             199.57,124.07 207.01,121.47 212.00,123.36
             216.16,124.95 219.27,127.61 224.00,127.86
             229.86,128.17 236.54,124.60 239.00,124.16
             244.39,123.20 247.98,128.34 256.00,128.90
             265.14,129.54 270.83,124.56 276.00,124.38
             282.95,124.13 289.02,130.35 297.00,130.90
             308.50,131.70 318.96,123.21 321.00,112.00
             316.68,112.00 302.49,113.06 299.70,110.40
             296.82,107.66 296.03,98.94 295.42,95.00
             295.13,93.14 294.98,90.26 293.40,89.02
             291.80,87.76 288.00,88.00 286.00,88.00
             286.00,88.00 269.00,88.00 269.00,88.00
             266.92,88.00 263.26,87.77 261.56,89.02
             258.23,91.48 257.47,106.63 253.35,110.40
             250.67,112.85 240.80,112.00 237.00,112.00 Z
           M 286.00,95.00
           C 286.00,95.00 286.00,105.00 286.00,105.00
             286.00,105.00 269.00,105.00 269.00,105.00
             269.00,105.00 269.00,95.00 269.00,95.00
             269.00,95.00 286.00,95.00 286.00,95.00 Z
           M 233.00,106.00
           C 233.00,106.00 232.00,112.00 232.00,112.00
             232.00,112.00 230.00,112.00 230.00,112.00
             230.00,112.00 227.00,107.00 227.00,107.00
             227.00,107.00 233.00,106.00 233.00,106.00 Z
           M 185.00,134.00
           C 185.00,134.00 185.00,140.00 185.00,140.00
             188.79,139.83 195.42,139.01 199.00,137.96
             201.72,137.16 206.65,134.75 209.00,134.78
             213.02,134.82 216.09,138.64 222.00,139.67
             230.00,141.06 237.74,136.27 240.58,136.14
             244.81,135.93 248.63,141.30 259.00,140.96
             267.74,140.67 272.76,136.47 277.00,136.53
             284.52,136.66 288.99,143.44 300.00,142.96
             309.73,142.54 312.45,136.94 318.00,136.52
             323.07,136.14 327.45,140.67 334.00,142.00
             334.00,142.00 334.00,141.00 334.00,141.00
             334.00,141.00 336.00,139.00 336.00,139.00
             331.01,132.68 320.97,128.23 313.00,131.13
             307.21,133.24 304.00,137.66 297.00,136.78
             291.51,136.08 285.10,130.62 277.00,130.21
             270.88,129.90 265.58,134.98 258.00,134.92
             251.39,134.86 247.19,130.32 242.00,129.63
             236.77,128.94 231.03,134.13 225.00,133.70
             220.09,133.35 214.60,128.44 209.00,128.29
             205.60,128.19 202.19,130.18 199.00,131.30
             194.58,132.85 189.66,133.62 185.00,134.00 Z
           M 180.00,154.00
           C 180.00,154.00 180.00,157.00 180.00,157.00
             180.00,157.00 172.60,158.60 172.60,158.60
             172.60,158.60 171.00,165.00 171.00,165.00
             171.00,165.00 171.00,182.00 171.00,182.00
             171.00,182.00 177.00,182.00 177.00,182.00
             177.00,182.00 177.00,187.00 177.00,187.00
             177.00,187.00 171.00,187.00 171.00,187.00
             171.00,187.00 171.00,183.00 171.00,183.00
             171.00,183.00 167.00,183.00 167.00,183.00
             167.00,183.00 168.60,190.85 168.60,190.85
             168.60,190.85 175.00,190.13 175.00,190.13
             175.00,190.13 190.00,190.13 190.00,190.13
             190.00,190.13 190.00,183.00 190.00,183.00
             190.00,183.00 186.00,183.00 186.00,183.00
             186.00,183.00 186.00,187.00 186.00,187.00
             186.00,187.00 181.00,187.00 181.00,187.00
             181.00,187.00 181.00,182.00 181.00,182.00
             181.00,182.00 197.00,182.00 197.00,182.00
             197.00,182.00 192.00,192.00 192.00,192.00
             193.95,191.97 196.84,192.15 198.49,190.98
             200.97,189.21 202.86,181.29 199.56,179.57
             198.19,178.86 194.62,179.00 193.00,179.00
             193.00,179.00 176.00,179.00 176.00,179.00
             176.00,179.00 176.00,176.00 176.00,176.00
             176.00,176.00 203.00,176.00 203.00,176.00
             203.00,176.00 203.00,173.00 203.00,173.00
             203.00,173.00 176.00,173.00 176.00,173.00
             176.00,173.00 176.00,170.00 176.00,170.00
             179.46,170.00 193.25,170.68 195.40,168.98
             198.02,166.91 197.39,159.82 194.69,158.02
             192.83,156.79 189.19,157.01 187.00,157.00
             187.00,157.00 187.00,154.00 187.00,154.00
             187.00,154.00 180.00,154.00 180.00,154.00 Z
           M 324.00,154.00
           C 324.00,154.00 324.00,157.00 324.00,157.00
             316.50,157.00 306.97,154.84 310.00,166.00
             310.00,166.00 312.00,166.00 312.00,166.00
             312.00,166.00 313.00,161.00 313.00,161.00
             313.00,161.00 339.00,161.00 339.00,161.00
             339.26,162.46 339.93,166.45 342.46,164.83
             344.79,163.34 343.62,159.31 341.69,158.02
             339.48,156.55 331.90,157.00 329.00,157.00
             329.00,157.00 329.00,154.00 329.00,154.00
             329.00,154.00 324.00,154.00 324.00,154.00 Z
           M 192.00,160.00
           C 192.00,160.00 192.00,162.00 192.00,162.00
             192.00,162.00 176.00,162.00 176.00,162.00
             176.00,162.00 176.00,160.00 176.00,160.00
             176.00,160.00 192.00,160.00 192.00,160.00 Z
           M 263.00,168.00
           C 264.74,167.85 266.78,167.95 267.97,166.40
             269.45,164.48 268.84,160.08 264.98,160.46
             255.76,161.34 256.53,180.62 260.70,185.77
             262.40,187.88 267.91,190.51 269.83,187.46
             271.43,184.93 266.76,183.71 264.74,180.86
             262.44,177.61 263.00,171.89 263.00,168.00 Z
           M 267.00,162.00
           C 267.00,162.00 267.00,166.00 267.00,166.00
             267.00,166.00 263.00,166.00 263.00,166.00
             263.00,166.00 263.00,162.00 263.00,162.00
             263.00,162.00 267.00,162.00 267.00,162.00 Z
           M 192.00,165.00
           C 192.00,165.00 192.00,168.00 192.00,168.00
             192.00,168.00 176.00,168.00 176.00,168.00
             176.00,168.00 176.00,165.00 176.00,165.00
             176.00,165.00 192.00,165.00 192.00,165.00 Z
           M 224.00,170.00
           C 230.15,171.96 229.27,176.39 228.84,182.00
             228.70,183.75 227.99,186.65 229.59,187.93
             234.05,191.47 234.93,178.94 234.92,177.00
             234.92,173.68 234.20,169.81 231.70,167.43
             226.78,162.73 213.82,162.89 210.17,169.19
             208.28,172.46 208.44,182.73 210.74,185.77
             213.96,190.04 220.38,189.70 222.98,184.94
             224.51,182.14 224.00,173.52 224.00,170.00 Z
           M 249.54,165.17
           C 247.03,168.53 248.34,172.01 247.89,176.00
             247.09,183.21 242.47,183.06 241.17,185.48
             239.57,188.45 244.83,190.16 248.79,187.26
             253.60,183.74 253.03,177.25 253.00,172.00
             252.98,168.99 253.62,164.62 249.54,165.17 Z
           M 302.00,164.00
           C 296.15,167.21 297.20,171.49 294.65,177.00
             293.16,180.20 291.52,182.55 287.98,183.57
             285.82,184.19 282.31,183.73 281.17,185.54
             278.54,189.69 289.31,189.31 291.99,188.26
             299.21,185.43 303.67,171.02 302.00,164.00 Z
           M 315.00,164.00
           C 315.00,164.00 315.00,168.00 315.00,168.00
             315.00,168.00 319.00,168.00 319.00,168.00
             315.78,171.06 314.31,171.32 310.00,172.00
             310.00,172.00 311.00,176.00 311.00,176.00
             311.00,176.00 321.00,173.00 321.00,173.00
             317.49,176.91 314.97,177.66 310.00,179.00
             313.64,184.37 319.63,179.31 324.00,177.00
             319.30,185.39 311.57,182.44 309.00,190.00
             316.87,189.28 319.30,186.59 326.00,183.00
             324.59,187.51 323.54,188.02 319.00,189.00
             322.78,195.67 329.59,191.69 330.72,185.98
             331.92,179.98 327.93,174.81 325.00,170.00
             325.00,170.00 329.00,169.00 329.00,169.00
             330.53,177.47 334.88,187.06 344.00,189.00
             344.00,189.00 338.62,178.09 338.62,178.09
             338.62,178.09 342.00,170.00 342.00,170.00
             342.00,170.00 334.00,173.00 334.00,173.00
             334.00,173.00 333.00,168.00 333.00,168.00
             333.00,168.00 337.00,168.00 337.00,168.00
             337.00,168.00 337.00,164.00 337.00,164.00
             337.00,164.00 315.00,164.00 315.00,164.00 Z
           M 292.00,165.00
           C 292.00,165.00 283.00,165.00 283.00,165.00
             281.48,165.03 275.12,165.22 277.17,168.46
             278.19,170.08 281.33,169.97 283.00,170.00
             288.22,170.08 290.98,170.78 292.00,165.00 Z
           M 218.98,170.00
           C 218.98,170.00 218.98,175.00 218.98,175.00
             218.98,175.00 218.98,178.98 218.98,178.98
             218.80,180.53 218.02,184.40 215.54,182.83
             214.27,182.03 211.06,172.54 218.98,170.00 Z
           M 127.00,268.00
           C 127.00,268.00 144.00,268.00 144.00,268.00
             144.00,268.00 144.00,294.00 144.00,294.00
             144.07,297.48 143.91,300.23 148.06,300.85
             155.29,301.94 154.99,297.41 155.00,292.00
             155.00,292.00 155.00,236.00 155.00,236.00
             154.83,227.23 151.44,228.01 144.00,228.00
             144.00,228.00 144.00,263.00 144.00,263.00
             144.00,263.00 127.00,263.00 127.00,263.00
             127.00,263.00 127.00,234.00 127.00,234.00
             126.84,224.57 119.51,226.69 117.60,228.60
             115.68,230.52 116.01,234.46 116.00,237.00
             116.00,237.00 116.00,292.00 116.00,292.00
             116.00,293.99 115.77,297.81 117.02,299.40
             117.88,300.49 126.80,304.76 127.00,294.00
             127.00,294.00 127.00,268.00 127.00,268.00 Z
           M 222.00,257.00
           C 226.30,263.82 230.80,278.85 233.14,287.00
             234.16,290.56 235.64,297.62 239.22,299.26
             243.30,301.13 248.09,299.77 248.85,294.98
             248.85,294.98 248.00,278.00 248.00,278.00
             248.00,278.00 248.00,247.00 248.00,247.00
             248.05,243.00 249.64,234.36 248.71,231.23
             247.59,227.49 241.20,227.08 238.74,229.60
             236.96,231.42 237.04,234.63 237.00,237.00
             237.00,237.00 237.00,262.00 237.00,262.00
             233.73,255.61 231.32,247.83 229.00,241.00
             227.92,237.83 225.97,231.72 223.59,229.51
             219.59,225.81 210.17,224.64 210.00,237.00
             210.00,237.00 210.00,291.00 210.00,291.00
             210.00,292.99 209.77,296.81 211.02,298.40
             212.91,300.79 219.01,300.52 220.40,297.69
             221.42,295.62 220.99,281.30 221.00,278.00
             221.00,278.00 222.00,257.00 222.00,257.00 Z
           M 307.00,228.00
           C 307.00,228.00 307.00,263.00 307.00,263.00
             307.00,263.00 307.81,278.00 307.81,278.00
             307.81,278.00 307.81,291.00 307.81,291.00
             307.63,293.13 306.72,296.74 307.81,298.69
             309.24,302.21 315.04,300.53 316.43,297.61
             317.20,295.98 316.95,291.97 317.09,290.00
             317.09,290.00 318.00,274.00 318.00,274.00
             318.00,274.00 329.05,292.00 329.05,292.00
             329.05,292.00 336.04,299.20 336.04,299.20
             336.04,299.20 344.00,299.20 344.00,299.20
             344.00,299.20 327.00,266.00 327.00,266.00
             331.34,265.89 335.11,265.51 338.54,262.36
             345.07,256.18 344.26,239.67 338.54,233.10
             331.51,224.85 316.67,226.72 307.00,228.00 Z
           M 319.31,231.77
           C 330.14,231.02 333.33,239.76 332.96,249.00
             332.78,253.54 331.73,259.53 326.96,261.40
             324.77,262.26 319.63,262.44 318.02,260.40
             316.96,259.06 317.03,256.62 317.00,255.00
             317.00,255.00 317.00,239.00 317.00,239.00
             317.02,235.56 316.45,233.90 319.31,231.77 Z
           M 190.00,294.00
           C 190.61,296.34 191.04,298.58 193.27,299.98
             195.58,301.42 201.48,301.85 201.67,296.94
             201.67,296.94 199.06,279.00 199.06,279.00
             198.75,272.89 201.19,268.17 199.06,262.00
             193.47,246.06 175.94,244.29 168.96,254.09
             162.88,262.64 162.88,273.01 163.00,283.00
             163.17,296.44 168.89,304.54 183.00,298.86
             186.09,297.61 187.57,296.15 190.00,294.00 Z
           M 284.00,294.00
           C 284.79,295.91 285.74,298.77 287.50,299.98
             289.95,301.66 295.26,301.23 296.08,297.85
             296.08,297.85 294.18,282.00 294.18,282.00
             294.18,282.00 294.18,264.00 294.18,264.00
             293.40,260.33 289.95,253.94 286.90,251.70
             281.23,247.54 268.54,247.58 263.96,253.33
             262.57,255.08 260.28,259.84 259.47,262.00
             257.87,266.21 258.01,268.63 258.00,273.00
             257.99,281.98 255.51,302.22 270.00,300.68
             271.77,300.50 275.36,299.55 277.00,298.87
             280.14,297.56 281.52,296.20 284.00,294.00 Z
           M 364.00,249.57
           C 350.11,254.74 349.49,269.44 350.84,282.00
             351.47,287.92 351.61,293.25 356.21,297.78
             359.95,301.46 364.04,301.94 369.00,302.00
             375.84,302.08 381.59,301.85 386.89,296.79
             393.88,290.11 388.18,286.11 383.05,287.45
             378.46,288.64 377.64,294.01 373.00,295.34
             365.13,297.60 359.76,281.10 362.06,277.31
             364.20,273.78 377.88,275.01 382.00,275.00
             383.96,275.00 387.84,275.23 389.40,273.98
             393.31,270.82 386.64,258.15 384.21,255.18
             379.47,249.39 370.97,248.32 364.00,249.57 Z
           M 179.00,254.00
           C 192.56,256.91 188.24,271.36 186.39,281.00
             185.69,284.61 184.23,291.07 180.69,292.92
             175.41,295.68 173.72,286.26 173.14,283.00
             173.14,283.00 173.14,275.00 173.14,275.00
             173.04,264.90 174.42,262.66 179.00,254.00 Z
           M 275.18,254.91
           C 287.14,257.11 282.00,275.12 280.21,283.00
             279.44,286.37 277.93,292.30 273.95,293.18
             267.98,294.50 268.01,282.45 268.00,279.00
             267.99,271.08 266.70,259.10 275.18,254.91 Z
           M 379.00,268.00
           C 376.05,268.84 365.02,270.38 363.13,267.40
             361.18,264.34 367.12,254.55 371.67,255.72
             375.10,256.60 377.92,264.90 379.00,268.00 Z
           M 26.00,275.00
           C 29.72,275.73 32.49,275.83 36.00,274.03
             39.70,272.13 42.73,268.08 48.00,268.31
             51.32,268.46 60.19,272.62 64.00,273.92
             71.59,276.52 82.47,278.21 90.00,274.70
             92.17,273.69 94.99,271.46 97.00,270.00
             87.91,262.72 84.67,273.13 76.00,273.05
             72.85,273.03 68.96,271.43 66.00,270.32
             61.73,268.71 57.47,266.47 53.00,265.52
             44.12,263.62 29.23,264.93 26.00,275.00 Z
           M 414.00,277.00
           C 426.46,279.46 427.05,269.91 436.00,270.31
             439.49,270.47 447.08,274.33 451.00,275.64
             458.34,278.11 470.77,280.04 478.00,276.70
             480.13,275.72 483.02,273.44 485.00,272.00
             475.95,264.75 472.76,274.80 464.00,274.92
             460.11,274.97 456.53,273.45 453.00,271.99
             453.00,271.99 444.00,268.30 444.00,268.30
             434.62,265.64 417.48,265.73 414.00,277.00 Z
           M 173.30,311.25
           C 170.05,314.33 171.01,318.76 171.00,323.00
             170.99,327.16 171.37,331.50 167.77,334.42
             165.57,336.21 162.22,336.30 161.17,338.41
             159.01,342.73 167.92,344.67 172.79,341.11
             178.94,336.61 178.01,326.71 178.00,320.00
             177.99,315.93 178.79,310.86 173.30,311.25 Z
           M 187.30,311.17
           C 186.53,311.92 186.40,311.34 185.60,313.15
             183.72,317.39 184.99,333.83 187.41,337.91
             189.83,341.97 196.55,344.87 200.64,341.98
             202.19,340.89 202.45,339.18 201.21,337.73
             199.43,335.67 195.53,336.25 193.17,331.94
             189.88,325.90 195.63,310.28 187.30,311.17 Z
           M 249.00,316.00
           C 246.21,316.00 237.23,315.69 235.15,316.60
             232.77,317.64 231.64,320.32 233.62,321.98
             236.61,324.49 245.84,320.82 246.93,326.15
             247.68,329.75 244.23,334.15 240.98,335.40
             240.98,335.40 237.02,336.13 237.02,336.13
             234.82,336.58 231.88,337.83 232.74,340.70
             233.81,344.25 243.49,343.10 245.99,341.83
             253.09,338.18 254.07,330.03 255.00,323.00
             257.33,323.00 263.69,323.39 265.38,321.98
             266.27,321.24 266.57,320.20 266.26,319.09
             265.19,315.31 259.01,316.00 256.00,316.00
             255.40,308.44 250.49,309.39 249.00,316.00 Z
           M 331.00,322.00
           C 328.79,322.08 327.06,321.99 325.00,323.02
             318.58,326.23 305.31,345.56 305.00,329.00
             305.00,329.00 305.00,319.00 305.00,319.00
             304.98,316.54 305.17,310.28 301.09,310.91
             299.83,311.11 299.08,312.05 298.60,313.15
             297.63,315.33 297.96,329.67 298.00,333.00
             298.12,341.81 303.23,346.54 312.00,342.99
             315.29,341.66 328.34,330.15 329.98,326.96
             330.89,325.18 330.85,323.89 331.00,322.00 Z
           M 285.00,385.01
           C 276.93,380.06 258.34,376.14 249.00,378.08
             242.57,379.42 239.95,383.57 236.00,383.83
             236.00,383.83 225.00,381.34 225.00,381.34
             220.09,380.17 210.84,380.47 206.00,381.34
             198.39,383.36 186.23,388.52 181.70,395.04
             179.29,398.50 179.05,401.95 179.00,406.00
             178.97,408.99 178.87,413.15 179.53,416.00
             181.29,423.64 188.61,432.58 195.00,436.91
             207.53,445.39 221.66,444.32 236.00,444.09
             236.00,444.09 247.00,444.09 247.00,444.09
             247.00,444.09 278.00,444.09 278.00,444.09
             278.00,444.09 291.00,444.99 291.00,444.99
             298.96,445.16 298.95,444.14 306.00,441.48
             318.96,436.60 328.39,431.55 331.77,417.00
             332.46,414.00 333.04,411.09 332.82,408.00
             332.54,404.09 331.02,393.38 328.91,390.37
             327.83,388.82 324.57,386.28 323.00,385.01
             311.54,375.94 295.56,372.89 285.00,385.01 Z
           M 299.00,399.00
           C 299.00,399.00 288.00,385.00 288.00,385.00
             292.52,382.23 294.51,380.23 300.00,380.02
             308.70,379.68 320.98,384.44 325.56,392.18
             327.51,395.49 328.53,404.01 328.82,408.00
             330.47,431.25 306.83,441.97 287.00,442.00
             287.00,442.00 258.00,442.00 258.00,442.00
             243.03,441.89 227.78,443.09 213.00,440.42
             207.72,439.47 202.73,438.84 198.00,436.02
             192.36,432.66 189.16,428.19 185.64,422.83
             183.30,419.28 182.48,416.14 181.87,412.00
             179.61,396.52 191.13,387.72 205.00,384.34
             225.07,379.45 236.00,385.02 249.00,400.00
             247.43,393.16 242.77,392.50 241.17,388.02
             238.96,381.80 250.04,380.06 254.00,380.00
             265.03,379.86 276.48,382.22 285.83,388.35
             290.67,391.52 293.15,395.64 299.00,399.00 Z
           M 261.00,412.00
           C 261.00,412.00 258.87,414.32 258.87,414.32
             253.17,423.02 267.56,419.98 271.00,420.00
             271.00,420.00 268.00,417.00 268.00,417.00
             268.00,417.00 270.00,413.00 270.00,413.00
             270.00,413.00 264.00,413.00 264.00,413.00
             264.66,411.98 265.36,411.20 265.82,410.00
             268.34,403.41 258.96,402.75 259.56,408.91
             259.70,410.33 260.32,410.91 261.00,412.00 Z
           M 197.00,405.00
           C 197.00,405.00 197.00,422.00 197.00,422.00
             205.89,421.89 205.50,420.79 205.41,413.00
             205.39,410.82 206.07,408.37 204.38,406.60
             202.67,404.80 199.29,405.03 197.00,405.00 Z
           M 199.00,412.00
           C 199.00,412.00 199.00,406.00 199.00,406.00
             204.67,406.98 204.67,411.02 199.00,412.00 Z
           M 248.00,405.00
           C 248.00,405.00 248.00,411.00 248.00,411.00
             240.10,411.65 240.03,417.61 242.74,420.40
             244.51,422.23 247.66,421.97 250.00,422.00
             250.00,422.00 250.00,405.00 250.00,405.00
             250.00,405.00 248.00,405.00 248.00,405.00 Z
           M 264.00,406.00
           C 264.00,406.00 265.00,407.00 265.00,407.00
             265.00,407.00 265.00,409.00 265.00,409.00
             265.00,409.00 264.00,410.00 264.00,410.00
             264.00,410.00 262.00,410.00 262.00,410.00
             262.00,410.00 261.00,409.00 261.00,409.00
             261.00,409.00 261.00,407.00 261.00,407.00
             261.00,407.00 262.00,406.00 262.00,406.00
             262.00,406.00 264.00,406.00 264.00,406.00 Z
           M 284.00,417.97
           C 284.00,417.97 281.00,421.00 281.00,421.00
             281.00,421.00 279.00,421.00 279.00,421.00
             276.48,414.27 276.48,412.73 279.00,406.00
             279.00,406.00 284.00,410.00 284.00,410.00
             282.70,406.50 279.19,402.82 276.17,407.31
             274.76,409.42 274.72,415.56 275.43,417.97
             276.81,422.55 282.05,423.41 284.00,417.97 Z
           M 297.00,411.00
           C 297.00,411.00 300.00,412.00 300.00,412.00
             300.00,412.00 300.00,422.00 300.00,422.00
             300.00,422.00 302.00,422.00 302.00,422.00
             302.00,422.00 302.00,412.00 302.00,412.00
             302.00,412.00 306.00,412.00 306.00,412.00
             306.00,412.00 306.00,410.00 306.00,410.00
             306.00,410.00 302.00,407.00 302.00,407.00
             302.00,407.00 306.00,408.00 306.00,408.00
             302.26,402.47 299.94,408.03 297.00,411.00 Z
           M 208.00,410.00
           C 208.00,410.00 208.00,422.00 208.00,422.00
             208.00,422.00 211.00,422.00 211.00,422.00
             211.10,414.52 211.89,416.02 215.00,410.00
             215.00,410.00 208.00,410.00 208.00,410.00 Z
           M 227.00,419.00
           C 227.00,419.00 222.00,421.00 222.00,421.00
             222.00,421.00 221.00,416.00 221.00,416.00
             221.00,416.00 227.00,416.00 227.00,416.00
             225.64,407.90 219.62,409.64 218.45,414.06
             216.84,420.12 222.92,425.09 227.00,419.00 Z
           M 223.00,411.00
           C 223.00,411.00 225.00,415.00 225.00,415.00
             225.00,415.00 221.00,415.00 221.00,415.00
             221.00,415.00 223.00,411.00 223.00,411.00 Z
           M 239.00,422.00
           C 238.56,419.53 238.05,413.16 236.40,411.62
             231.63,407.13 228.08,416.83 231.02,420.37
             232.34,421.95 236.93,421.79 239.00,422.00 Z
           M 235.00,411.00
           C 236.09,415.19 236.55,418.22 232.00,420.00
             232.00,420.00 233.00,411.00 233.00,411.00
             233.00,411.00 235.00,411.00 235.00,411.00 Z
           M 294.89,422.00
           C 294.89,422.00 294.89,418.00 294.89,418.00
             294.98,416.89 294.97,415.11 294.89,414.06
             294.25,412.46 293.53,411.25 291.90,410.65
             286.35,408.62 285.90,418.89 288.60,420.93
             289.92,421.93 293.32,421.90 294.89,422.00 Z
           M 292.00,411.00
           C 291.98,415.15 292.73,417.50 289.00,420.00
             289.00,420.00 290.00,411.00 290.00,411.00
             290.00,411.00 292.00,411.00 292.00,411.00 Z
           M 318.00,419.00
           C 318.00,419.00 312.00,421.00 312.00,421.00
             312.00,421.00 311.00,416.00 311.00,416.00
             311.00,416.00 318.00,416.00 318.00,416.00
             316.20,408.04 310.44,409.75 309.32,414.06
             307.56,420.84 313.86,425.18 318.00,419.00 Z
           M 314.00,411.00
           C 314.00,411.00 316.00,415.00 316.00,415.00
             316.00,415.00 311.00,415.00 311.00,415.00
             311.00,415.00 314.00,411.00 314.00,411.00 Z
           M 246.00,412.00
           C 248.19,416.26 248.45,417.48 245.00,421.00
             243.06,416.69 242.57,415.53 246.00,412.00 Z
           M 199.00,421.00
           C 199.00,421.00 199.00,414.00 199.00,414.00
             204.66,415.81 204.66,419.19 199.00,421.00 Z
           M 265.00,418.00
           C 265.00,418.00 259.00,418.00 259.00,418.00
             261.25,414.14 262.75,414.14 265.00,418.00 Z" />
</svg>
